<?xml version="1.0" encoding="utf-8"?>
<!-- Generator: Adobe Illustrator 20.1.0, SVG Export Plug-In . SVG Version: 6.00 Build 0)  -->
<svg version="1.1" id="Layer_1" xmlns="http://www.w3.org/2000/svg" xmlns:xlink="http://www.w3.org/1999/xlink" x="0px" y="0px"
	 viewBox="0 0 207.9 137" style="enable-background:new 0 0 207.9 137;" xml:space="preserve">
<style type="text/css">
	.st0{fill:none;stroke:#000000;stroke-width:0.5596;stroke-miterlimit:10;}
	.st1{fill:#FFFFFF;stroke:#000000;stroke-width:0.2814;stroke-miterlimit:10;}
	.st2{fill:#EEEEEE;stroke:#000000;stroke-width:0.134;stroke-miterlimit:10;}
	.st3{font-family:sans-serif;}
	.st4{font-size:11.5236px;}
	.st5{font-size:10.3713px;}
</style>
<polyline class="st0" points="102,20.2 169.2,20.2 169.2,47.1 "/>
<polyline class="st0" points="100.6,20.2 33.3,20.2 33.3,47.1 "/>
<g>
	<rect x="75.3" y="9.2" class="st1" width="48.3" height="74.1"/>
	<rect x="75.3" y="9.2" class="st2" width="48.3" height="18.1"/>
	<text transform="matrix(1 0 0 1 84.2051 23.3848)" class="st3 st4">Game</text>
	<text transform="matrix(1 0 0 1 94.2476 38.5498)"><tspan x="0" y="0" class="st3 st5">...</tspan><tspan x="0" y="11.3" class="st3 st5">...</tspan><tspan x="0" y="22.6" class="st3 st5">...</tspan><tspan x="0" y="33.9" class="st3 st5">...</tspan></text>
</g>
<g>
	<rect x="10.8" y="45.3" class="st1" width="48.3" height="79.9"/>
	<rect x="10.8" y="45.3" class="st2" width="48.3" height="18.1"/>
	<text transform="matrix(1 0 0 1 21.4023 59.4922)" class="st3 st4">Piece</text>
	<text transform="matrix(1 0 0 1 20.3862 74.6572)"><tspan x="0" y="0" class="st3 st5">_____</tspan><tspan x="0" y="11.3" class="st3 st5">_____</tspan><tspan x="0" y="22.6" class="st3 st5">_____</tspan><tspan x="0" y="33.9" class="st3 st5">_____</tspan></text>
</g>
<g>
	<rect x="144.7" y="46.8" class="st1" width="48.3" height="79.9"/>
	<rect x="144.7" y="46.8" class="st2" width="48.3" height="18.1"/>
	<text transform="matrix(1 0 0 1 153.5386 61.0288)" class="st3 st4">Player</text>
	<text transform="matrix(1 0 0 1 163.5811 76.1938)"><tspan x="0" y="0" class="st3 st5">...</tspan><tspan x="0" y="11.3" class="st3 st5">...</tspan><tspan x="0" y="22.6" class="st3 st5">...</tspan><tspan x="0" y="33.9" class="st3 st5">...</tspan></text>
</g>
</svg>
